<?xml version="1.0" encoding="utf-8"?>
<!-- Generator: Adobe Illustrator 16.0.0, SVG Export Plug-In . SVG Version: 6.00 Build 0)  -->
<!DOCTYPE svg PUBLIC "-//W3C//DTD SVG 1.1//EN" "http://www.w3.org/Graphics/SVG/1.1/DTD/svg11.dtd">
<svg version="1.1" id="Layer_1" xmlns="http://www.w3.org/2000/svg" xmlns:xlink="http://www.w3.org/1999/xlink" x="0px" y="0px"
	 width="291.765px" height="220px" viewBox="0 0 291.765 220" enable-background="new 0 0 291.765 220" xml:space="preserve">
<g>
	<path fill="none" stroke="#FFFFFF" stroke-width="8" stroke-linecap="round" stroke-linejoin="round" stroke-miterlimit="10" d="
		M25.551,88.482c11.16,26.307,48.78,5.629,64.259-2.814s65.26-22.045,103.456-4.691c38.195,17.355,48.984,26.268,65.869,17.355
		c16.887-8.912,14.541-42.683-25.797-60.507C193,20.001,161.23,18.41,134.682,20.001C103.387,21.877,5.851,42.046,25.551,88.482z"/>
	<path fill="none" stroke="#FFFFFF" stroke-width="8" stroke-linecap="round" stroke-linejoin="round" stroke-miterlimit="10" d="
		M233.338,37.825c0,0-34.24,7.974-43.621,16.886"/>
	<path fill="none" stroke="#FFFFFF" stroke-width="8" stroke-linecap="round" stroke-linejoin="round" stroke-miterlimit="10" d="
		M161.137,19.836c0,0-29.666,16.581-37.832,28.308"/>
	<path fill="none" stroke="#FFFFFF" stroke-width="8" stroke-linecap="round" stroke-linejoin="round" stroke-miterlimit="10" d="
		M92.084,27.224c0,0-24.319,23.265-30.417,41.088"/>
	
		<polyline fill="none" stroke="#FFFFFF" stroke-width="8" stroke-linecap="round" stroke-linejoin="round" stroke-miterlimit="10" points="
		120.767,75.598 120.767,104.43 134.682,120.846 155.945,120.846 171.424,103.961 171.424,74.344 	"/>
	
		<line fill="none" stroke="#FFFFFF" stroke-width="8" stroke-linecap="round" stroke-linejoin="round" stroke-miterlimit="10" x1="146.095" y1="72.619" x2="146.095" y2="99.738"/>
	
		<line fill="none" stroke="#FFFFFF" stroke-width="8" stroke-linecap="round" stroke-linejoin="round" stroke-miterlimit="10" x1="120.767" y1="104.43" x2="171.424" y2="104.43"/>
	<path fill="none" stroke="#FFFFFF" stroke-width="8" stroke-linecap="round" stroke-linejoin="round" stroke-miterlimit="10" d="
		M134.682,120.846v70.982c0,5.613,4.55,10.162,10.162,10.162l0,0c5.613,0,10.164-4.549,10.164-10.162v-70.982"/>
</g>
</svg>
