<?xml version="1.0" encoding="utf-8"?>
<!-- Generator: Adobe Illustrator 16.0.0, SVG Export Plug-In . SVG Version: 6.00 Build 0)  -->
<!DOCTYPE svg PUBLIC "-//W3C//DTD SVG 1.1//EN" "http://www.w3.org/Graphics/SVG/1.1/DTD/svg11.dtd">
<svg version="1.1" id="Layer_1" xmlns="http://www.w3.org/2000/svg" xmlns:xlink="http://www.w3.org/1999/xlink" x="0px" y="0px"
	 width="291.765px" height="220px" viewBox="0 0 291.765 220" enable-background="new 0 0 291.765 220" xml:space="preserve">
<g>
	<path fill="none" stroke="#FFFFFF" stroke-width="8" stroke-linecap="round" stroke-linejoin="round" stroke-miterlimit="10" d="
		M148.635,124.833H16.834c5.628,43.621,75.984,44.09,75.984,44.09l9.851,16.417h45.966h45.967l9.85-16.417
		c0,0,70.357-0.469,75.985-44.09H148.635z"/>
	<path fill="none" stroke="#FFFFFF" stroke-width="8" stroke-linecap="round" stroke-linejoin="round" stroke-miterlimit="10" d="
		M49.26,124.833c0,0-8.443-37.992,29.08-38.931c0,0-5.159-24.859,11.727-32.833s32.833-1.407,36.586,7.504
		c0,0,12.194-17.494,29.08-11.092s15.479,23.757,15.479,23.757s10.788-8.912,20.169-6.567c9.381,2.346,15.947,11.889,13.603,19.781
		c0,0,45.497-9.462,43.621,38.381"/>
	
		<line fill="none" stroke="#FFFFFF" stroke-width="8" stroke-linecap="round" stroke-linejoin="round" stroke-miterlimit="10" x1="70.836" y1="105.133" x2="80.217" y2="105.133"/>
	
		<line fill="none" stroke="#FFFFFF" stroke-width="8" stroke-linecap="round" stroke-linejoin="round" stroke-miterlimit="10" x1="95.226" y1="92" x2="102.73" y2="86.452"/>
	
		<line fill="none" stroke="#FFFFFF" stroke-width="8" stroke-linecap="round" stroke-linejoin="round" stroke-miterlimit="10" x1="126.183" y1="80.274" x2="136.033" y2="80.274"/>
	
		<line fill="none" stroke="#FFFFFF" stroke-width="8" stroke-linecap="round" stroke-linejoin="round" stroke-miterlimit="10" x1="144.007" y1="102.788" x2="153.388" y2="105.133"/>
	
		<line fill="none" stroke="#FFFFFF" stroke-width="8" stroke-linecap="round" stroke-linejoin="round" stroke-miterlimit="10" x1="175.988" y1="93.447" x2="182.706" y2="86.452"/>
	
		<line fill="none" stroke="#FFFFFF" stroke-width="8" stroke-linecap="round" stroke-linejoin="round" stroke-miterlimit="10" x1="201.699" y1="105.133" x2="212.018" y2="109.823"/>
	
		<line fill="none" stroke="#FFFFFF" stroke-width="8" stroke-linecap="round" stroke-linejoin="round" stroke-miterlimit="10" x1="106.483" y1="109.823" x2="115.395" y2="107.479"/>
	<path fill="none" stroke="#FFFFFF" stroke-width="8" stroke-linecap="round" stroke-linejoin="round" stroke-miterlimit="10" d="
		M93.818,168.923c0,0,67.505,1.688,111.633,0"/>
</g>
</svg>
