<?xml version="1.0" encoding="utf-8"?>
<!-- Generator: Adobe Illustrator 16.0.0, SVG Export Plug-In . SVG Version: 6.00 Build 0)  -->
<!DOCTYPE svg PUBLIC "-//W3C//DTD SVG 1.1//EN" "http://www.w3.org/Graphics/SVG/1.1/DTD/svg11.dtd">
<svg version="1.1" id="Layer_1" xmlns="http://www.w3.org/2000/svg" xmlns:xlink="http://www.w3.org/1999/xlink" x="0px" y="0px"
	 width="291.765px" height="220px" viewBox="0 0 291.765 220" enable-background="new 0 0 291.765 220" xml:space="preserve">
<g>
	
		<line fill="none" stroke="#FFFFFF" stroke-width="8" stroke-linecap="round" stroke-linejoin="round" stroke-miterlimit="10" x1="159.314" y1="74.996" x2="172.126" y2="111.895"/>
	
		<line fill="none" stroke="#FFFFFF" stroke-width="8" stroke-linecap="round" stroke-linejoin="round" stroke-miterlimit="10" x1="174.821" y1="72.57" x2="184.954" y2="98.928"/>
	
		<line fill="none" stroke="#FFFFFF" stroke-width="8" stroke-linecap="round" stroke-linejoin="round" stroke-miterlimit="10" x1="190.327" y1="70.144" x2="196.733" y2="88.592"/>
	<path fill="none" stroke="#FFFFFF" stroke-width="8" stroke-linecap="round" stroke-linejoin="round" stroke-miterlimit="10" d="
		M206.05,115.058c1.877-13.758,13.823-36.254,4.378-35.021c-14.384,1.876-40.651,36.897-40.651,36.897
		c-6.254-10.006-40.024-33.771-38.148-36.897c1.876-3.127,26.893-18.136,22.514-21.889c-2.511-2.152-17.372-6.563-31.831-7.813
		c13.08-12.86,25.146-24.246,29.633-28.497c11.883-11.257,53.783-0.626,58.162,3.127c4.377,3.752-20.639,18.762-22.515,21.889
		s31.896,26.892,38.148,36.898c0,0,26.267-35.021,40.651-36.898c9.445-1.231-2.502,21.264-4.379,35.021
		c-1.875,13.76,6.88,38.15,10.633,49.407c3.752,11.257-6.88,30.644-20.014,14.384c-13.133-16.26-26.266-31.14-26.266-31.14
		s-8.375,9.075-18.916,18.476C206.092,126.383,205.372,120.025,206.05,115.058z"/>
	<path fill="none" stroke="#FFFFFF" stroke-width="8" stroke-linecap="round" stroke-linejoin="round" stroke-miterlimit="10" d="
		M170.402,147.709c0,0,7.627,8.643,17.063,19.944c-8.896,1.271-20.635,1.196-34.045-3.215
		C163.03,155.692,170.402,147.709,170.402,147.709z"/>
	<path fill="none" stroke="#FFFFFF" stroke-width="8" stroke-linecap="round" stroke-linejoin="round" stroke-miterlimit="10" d="
		M95.98,55.02c5.066-4.798,15.587-5.612,26.331-4.685c14.458,1.249,29.32,5.66,31.831,7.813
		c4.379,3.753-20.638,18.762-22.514,21.889c-1.876,3.126,31.895,26.892,38.148,36.897c0,0,26.268-35.021,40.651-36.897
		c9.445-1.232-2.501,21.264-4.378,35.021c-0.678,4.968,0.042,11.325,1.4,17.944c2.404,11.719,6.834,24.27,9.231,31.462
		c3.752,11.257-6.88,30.645-20.013,14.384c-3.129-3.873-6.252-7.66-9.203-11.194c-9.437-11.302-17.063-19.944-17.063-19.944
		s-7.372,7.983-16.981,16.729c-8.979,8.175-19.911,17.014-28.672,20.647c0,0,15.445,8.146,24.296,10.647c0,0-24.296,13.134-56.816,0
		c-32.52-13.134-65.666-55.659-69.418-61.914C19.057,127.566,84.098,66.277,95.98,55.02z"/>
	
		<circle fill="none" stroke="#FFFFFF" stroke-width="8" stroke-linecap="round" stroke-linejoin="round" stroke-miterlimit="10" cx="64.086" cy="117.248" r="10.006"/>
	<path fill="none" stroke="#FFFFFF" stroke-width="8" stroke-linecap="round" stroke-linejoin="round" stroke-miterlimit="10" d="
		M80.971,90.679c0,0,20.013,31.259,3.127,80.665"/>
	
		<line fill="none" stroke="#FFFFFF" stroke-width="8" stroke-linecap="round" stroke-linejoin="round" stroke-miterlimit="10" x1="103.351" y1="108.179" x2="116.162" y2="145.077"/>
	
		<line fill="none" stroke="#FFFFFF" stroke-width="8" stroke-linecap="round" stroke-linejoin="round" stroke-miterlimit="10" x1="118.857" y1="105.752" x2="131.669" y2="142.65"/>
	
		<line fill="none" stroke="#FFFFFF" stroke-width="8" stroke-linecap="round" stroke-linejoin="round" stroke-miterlimit="10" x1="134.364" y1="103.325" x2="147.176" y2="140.224"/>
</g>
</svg>
