<?xml version="1.0" encoding="utf-8"?>
<!-- Generator: Adobe Illustrator 16.0.0, SVG Export Plug-In . SVG Version: 6.00 Build 0)  -->
<!DOCTYPE svg PUBLIC "-//W3C//DTD SVG 1.1//EN" "http://www.w3.org/Graphics/SVG/1.1/DTD/svg11.dtd">
<svg version="1.1" id="Layer_1" xmlns="http://www.w3.org/2000/svg" xmlns:xlink="http://www.w3.org/1999/xlink" x="0px" y="0px"
	 width="272.941px" height="234.117px" viewBox="0 0 272.941 234.117" enable-background="new 0 0 272.941 234.117"
	 xml:space="preserve">
<g>
	<rect x="28.356" y="18.996" fill="#BFBACE" width="216.229" height="22.719"/>
	<g>
		<g>
			<rect x="48.995" y="41.714" fill="#4A4D5C" width="17.085" height="151.914"/>
			<rect x="57.537" y="41.714" fill="#373A47" width="8.543" height="151.914"/>
			<g>
				<path fill="#757989" d="M52.07,64.817c-0.943,0-1.708,0.766-1.708,1.709v15.547c0,0.944,0.765,1.709,1.708,1.709
					s1.708-0.765,1.708-1.709V66.526C53.778,65.583,53.013,64.817,52.07,64.817z"/>
				<path fill="#757989" d="M52.07,88.281c-0.943,0-1.708,0.765-1.708,1.709v5.979c0,0.943,0.765,1.708,1.708,1.708
					s1.708-0.765,1.708-1.708V89.99C53.778,89.045,53.013,88.281,52.07,88.281z"/>
			</g>
		</g>
		<g>
			<rect x="101.617" y="41.714" fill="#4A4D5C" width="17.085" height="151.914"/>
			<rect x="110.159" y="41.714" fill="#373A47" width="8.543" height="151.914"/>
			<g>
				<path fill="#757989" d="M104.692,64.817c-0.943,0-1.709,0.766-1.709,1.709v15.547c0,0.944,0.766,1.709,1.709,1.709
					s1.709-0.765,1.709-1.709V66.526C106.401,65.583,105.635,64.817,104.692,64.817z"/>
				<path fill="#757989" d="M104.692,88.281c-0.943,0-1.709,0.765-1.709,1.709v5.979c0,0.943,0.766,1.708,1.709,1.708
					s1.709-0.765,1.709-1.708V89.99C106.401,89.045,105.635,88.281,104.692,88.281z"/>
			</g>
		</g>
		<g>
			<rect x="154.239" y="41.714" fill="#4A4D5C" width="17.084" height="151.914"/>
			<rect x="162.78" y="41.714" fill="#373A47" width="8.543" height="151.914"/>
			<g>
				<path fill="#757989" d="M157.313,64.817c-0.943,0-1.707,0.766-1.707,1.709v15.547c0,0.944,0.764,1.709,1.707,1.709
					s1.709-0.765,1.709-1.709V66.526C159.022,65.583,158.256,64.817,157.313,64.817z"/>
				<path fill="#757989" d="M157.313,88.281c-0.943,0-1.707,0.765-1.707,1.709v5.979c0,0.943,0.764,1.708,1.707,1.708
					s1.709-0.765,1.709-1.708V89.99C159.022,89.045,158.256,88.281,157.313,88.281z"/>
			</g>
		</g>
		<g>
			<rect x="206.86" y="41.714" fill="#4A4D5C" width="17.086" height="151.914"/>
			<rect x="215.403" y="41.714" fill="#373A47" width="8.543" height="151.914"/>
			<g>
				<path fill="#757989" d="M209.936,64.817c-0.943,0-1.709,0.766-1.709,1.709v15.547c0,0.944,0.766,1.709,1.709,1.709
					s1.709-0.765,1.709-1.709V66.526C211.645,65.583,210.879,64.817,209.936,64.817z"/>
				<path fill="#757989" d="M209.936,88.281c-0.943,0-1.709,0.765-1.709,1.709v5.979c0,0.943,0.766,1.708,1.709,1.708
					s1.709-0.765,1.709-1.708V89.99C211.645,89.045,210.879,88.281,209.936,88.281z"/>
			</g>
		</g>
	</g>
	<g>
		<path fill="#DC7C32" d="M234.202,88.117h-39.789c-5.336,0-9.66,4.325-9.66,9.661v39.788c0,5.336,4.324,9.66,9.66,9.66h39.789
			c5.336,0,9.662-4.324,9.662-9.66V97.778C243.864,92.442,239.538,88.117,234.202,88.117z"/>
		<path fill="#B06028" d="M234.202,92.211h-39.789c-5.336,0-9.66,4.325-9.66,9.661v-4.095c0-5.336,4.324-9.661,9.66-9.661h39.789
			c5.336,0,9.662,4.325,9.662,9.661v4.095C243.864,96.537,239.538,92.211,234.202,92.211z"/>
		<path fill="#373A47" d="M224.448,113.62c0-5.908-4.789-10.697-10.697-10.697s-10.697,4.789-10.697,10.697
			c0,4.384,2.641,8.15,6.418,9.8v8.668c0,2.363,1.916,4.279,4.279,4.279s4.279-1.916,4.279-4.279v-8.668
			C221.805,121.77,224.448,118.004,224.448,113.62z"/>
	</g>
	<rect x="28.356" y="192.403" fill="#BFBACE" width="216.229" height="22.719"/>
</g>
</svg>
